# xmcd CD database file
#
# Track frame offsets:
#	150
#	10492
#	23317
#	35740
#	46941
#	63795
#	74954
#	86258
#	98137
#	109542
#	120942
#	135538
#	145050
#	157780
#	170440
#	181962
#	192002
#	201197
#	212865
#
# Disc length: 2975 seconds
#
# Revision: 0
# Processed by: cddbd v1.5.2PL0 Copyright (c) Steve Scherf et al.
# Submitted via: CDex 1.70beta2
#
DISCID=f70b9d13
DTITLE=The Queens Of Country - My Kind Of Music   CD1/2
DYEAR=2013
DGENRE=Country
TTITLE0=Dolly Parton - Release Me
TTITLE1=Patsy Cline - I Fall To Pieces
TTITLE2=Lynn Anderson - Stand By Your Man
TTITLE3=Patsy Cline - Just Out Of Beach
TTITLE4=Lynn Anderson - Blue Bayou
TTITLE5=Patsy Cline - Hungry For Love
TTITLE6=Dolly Parton - Making Believe
TTITLE7=Patsy Cline - A Poor Man´s Roses
TTITLE8=Lynn Anderson - Listen To A Country Song
TTITLE9=Patsy Cline - In Care Of The Blues
TTITLE10=Lynn Anderson - Gone At Last
TTITLE11=Dolly Parton - Girl Left Alone
TTITLE12=Patsy Cline - Just A Closer Walk With Thee
TTITLE13=Lynn Anderson - Top Of The World
TTITLE14=Patsy Cline - I've Loved And Lost Again
TTITLE15=Dolly Parton - It's Sure Gonna Hurt
TTITLE16=Patsy Cline - I Love You, Honey
TTITLE17=Lynn Anderson - Rodeo Cowboy
TTITLE18=Patsy Cline - How Can I Face Tomorrow?
EXTD=YEAR: 2013
EXTT0=
EXTT1=
EXTT2=
EXTT3=
EXTT4=
EXTT5=
EXTT6=
EXTT7=
EXTT8=
EXTT9=
EXTT10=
EXTT11=
EXTT12=
EXTT13=
EXTT14=
EXTT15=
EXTT16=
EXTT17=
EXTT18=
PLAYORDER=
